<?xml version="1.0" encoding="utf-8"?>
<!-- Generator: Adobe Illustrator 16.0.0, SVG Export Plug-In . SVG Version: 6.00 Build 0)  -->
<!DOCTYPE svg PUBLIC "-//W3C//DTD SVG 1.1//EN" "http://www.w3.org/Graphics/SVG/1.1/DTD/svg11.dtd">
<svg version="1.1" id="Layer_2" xmlns="http://www.w3.org/2000/svg" xmlns:xlink="http://www.w3.org/1999/xlink" x="0px" y="0px"
	 width="1200px" height="800px" viewBox="-6.092 -85.12 1200 800" enable-background="new -6.092 -85.12 1200 800"
	 xml:space="preserve">
<path fill="none" stroke="#000000" stroke-miterlimit="10" d="M208.916,397.54"/>
<path fill="none" stroke="#000000" stroke-miterlimit="10" d="M1020.722,199.479c0,0-19.176-7.312-22.943-1.263
	c-8.734,14.03-28.942,14.752-31.99,18.792c-2.708,3.589-5.079,13.516-17.409,19.379c-6.057,2.882-17.929,6.87-23.94,8.389
	c-6.009,1.521-42.595,14.272-47.518,17.56c-4.923,3.287-19.319,13.55-31.857,14.84c-12.539,1.29-72.955-2.561-78.037-0.236
	c-5.082,2.321-63.204,9.893-70.92,10.586c-7.715,0.69-43.932,8.456-48.279,11.764s-8.839,8.191-17.173,7.281
	c-8.335-0.912-9.737-2.071-14.693-3.207c-4.958-1.135-14.765-2.189-21.152-5.165c-14.737-6.861-44.029-32.784-50.739-33.259
	c-6.71-0.474-63.479-0.649-134.123-7.054c-9.193-0.835-45.142-1.008-50.352-0.421c-5.212,0.585-13.422,4.337-23.562,3.02
	c-10.142-1.317-17.751-8.891-24.389-11.429c-6.638-2.54-18.599-6.805-25.028-9.914c-6.428-3.11-8.985-7.042-14.337-7.808
	c-5.354-0.764-26.089-1.492-36.216-3.192c-10.128-1.699-28.113-5.707-35.785-4.714c-7.671,0.992-43.31,3.288-50.37,11.882
	c-7.061,8.594-13.377,22.217-13.377,22.217"/>
</svg>
