<?xml version="1.0" encoding="utf-8"?>
<!-- Generator: Adobe Illustrator 16.0.0, SVG Export Plug-In . SVG Version: 6.00 Build 0)  -->
<!DOCTYPE svg PUBLIC "-//W3C//DTD SVG 1.1//EN" "http://www.w3.org/Graphics/SVG/1.1/DTD/svg11.dtd">
<svg version="1.1" id="Layer_2" xmlns="http://www.w3.org/2000/svg" xmlns:xlink="http://www.w3.org/1999/xlink" x="0px" y="0px"
	 width="1200px" height="800px" viewBox="-6.092 -85.12 1200 800" enable-background="new -6.092 -85.12 1200 800"
	 xml:space="preserve">
<path fill="none" stroke="#000000" stroke-miterlimit="10" d="M208.916,397.54"/>
<path fill="none" stroke="#000000" stroke-miterlimit="10" d="M962.636,306.93c0,0-26.815,8.427-33.179,8.972
	c-6.363,0.544-27.303,4.477-33.241,4.995c-10.779,0.943-30.501-1.71-35.396-4.739c-4.895-3.027-14.025-11.987-21.439-13.549
	c-7.416-1.563-10.518-1.384-13.208-1.479c-2.691-0.095-28.92-8.535-36.595-8.975c-21.876-1.25-65.789,12.918-82.929,18.596
	c-15.539,5.148-82.593-1.713-92.439-0.521c-9.846,1.191-29.338,3.387-35.594,0.865c-6.254-2.522-11.275-7.508-15.428-9.574
	c-4.155-2.068-17.317-5.221-20.942-5.925c-3.624-0.705-26.376-10.753-33.871-10.331c-7.495,0.422-8.708,2.386-12.748,2.245
	c-6.715-0.235-18.817-11.524-22.205-13.565c-3.39-2.042-41.723,0.267-52.758-3.182c-6.806-2.125-46.572-9.704-51.977-14.507
	c-5.405-4.803-11.508-17.07-10.926-22.748c0.582-5.68,10.028-28.225,6.997-35.06c-3.032-6.835-4.592-11.696-8.423-12.024
	c-3.833-0.323-14.68,2.18-18.089,0.715c-3.409-1.468-10.438-9.401-13.526-14.506c-3.087-5.107-2.364-14.693-6.194-15.213
	c-3.829-0.517-12.978,2.619-17.326,6.12c-4.349,3.503-3.825,4.867-6.544,5.732c-2.721,0.863-27.294-0.048-35.18-5.393
	c-7.887-5.347-23.4-23.575-35.538-28.23c-12.137-4.655-15.354-6.302-19.62-10.683c-4.267-4.38-7.581-4.689-11.56-5.597
	c-3.979-0.906-10.142-0.629-11.427-2.268c-1.286-1.638-10.743-10.621-18.934-13.214"/>
</svg>
