<?xml version="1.0" encoding="utf-8"?>
<!-- Generator: Adobe Illustrator 16.0.0, SVG Export Plug-In . SVG Version: 6.00 Build 0)  -->
<!DOCTYPE svg PUBLIC "-//W3C//DTD SVG 1.1//EN" "http://www.w3.org/Graphics/SVG/1.1/DTD/svg11.dtd">
<svg version="1.1" id="Layer_2" xmlns="http://www.w3.org/2000/svg" xmlns:xlink="http://www.w3.org/1999/xlink" x="0px" y="0px"
	 width="1200px" height="800px" viewBox="-6.092 -85.12 1200 800" enable-background="new -6.092 -85.12 1200 800"
	 xml:space="preserve">
<path fill="none" stroke="#000000" stroke-miterlimit="10" d="M208.916,397.54"/>
<path fill="none" stroke="#000000" stroke-miterlimit="10" d="M155.562,354.34c-0.712-1.827,2.007-4.571,2.007-4.571
	c2.092-0.784,4.29-1.031,6.537-1.014l0,0c6.759,0.12,42.921,10.391,42.921,10.391c8.105,0.137,25.015-3.224,25.015-3.224
	c9.787-4.38,31.562-5.887,31.562-5.887c4.547,0.05,11.52,3.36,11.52,3.36c3.348,1.514,23.976,1.209,23.976,1.209
	c0.178-0.075,0.818-3.675,0.818-3.675c0.153-2.059,0.088-4.421,0.382-6.673l0,0c0.271-1.424,4.961-5.685,4.961-5.685
	c1.822,0.102,3.39,1.381,3.39,1.381c0.73,0.603,5.655,7.812,5.655,7.812c2.292,4.409,4.378,9.4,4.399,13.941l0,0
	c-0.028,1.325-3.476,7.79-3.585,7.94l0,0c0,0.008-0.001,0.027,0.016,0.054l0,0c0.03,0.155,5.513,10.728,8.198,14.327l0,0
	c2.59,3.606,5.953,6.905,6.505,6.979l0,0c0.061,0.02,0.668,0.077,0.668,0.077c0.993,0.052,18.745-1.856,18.745-1.856
	c4.647,1.072,11.494,3.826,18.891,6.853l0,0c7.327,3.032,20.774,8.396,20.774,8.396c12.458,4.5,29.086,18.52,29.086,18.52
	c6.052,4.88,14,8.312,20.915,8.366l0,0c1.662,0.005,4.79-0.525,4.79-0.525c3.827-0.938,6.559-2.925,10.366-6.791l0,0
	c3.779-3.816,8.342-9.323,15.287-16.126l0,0c14.684-14.299,36.509-19.328,49.323-23.314l0,0c3.986-1.22,7.902-1.658,11.676-1.617
	l0,0c9.908,0.14,18.884,3.194,27.187,3.62l0,0c0.527,0.028,1.045,0.046,1.598,0.056l0,0c11.01,0.153,25.329-5.012,36.751-8.351l0,0
	c10.47-2.923,22.947-14.246,28.616-20.455l0,0c3.053-3.19,7.25-4.394,11.562-5.407l0,0c4.278-0.966,12.261-2.12,12.261-2.12
	c2.29-0.388,4.777-1.292,4.777-1.292c0.05-0.043,0.092-0.059,0.133-0.086l0,0c2.391-3.303,7.307-16.667,7.307-16.667
	c1.297-3.352,7.579-7.618,7.579-7.618c3.536-1.769,44.762-12.32,50.052-12.319l0,0c7.707,0.185,28.076-4.937,37.284-9.782l0,0
	c4.175-2.136,7.81-6.227,11.499-10.787l0,0c3.694-4.525,7.397-9.505,12.559-12.901l0,0c5.007-3.245,10.912-5.142,16.362-6.622l0,0
	c5.434-1.438,10.517-2.457,13.322-3.458l0,0c2.403-0.807,33.1-2.128,35.824-3.996l0,0c4.237-2.649,9.206-5.685,9.206-5.685
	c2.269-1.61,7.872-7.081,7.872-7.081c3.724-3.929,9.998-7.981,9.998-7.981c3.315-1.524,10.361-1.786,10.361-1.786
	c4.865,0.085,11.147,1.054,11.147,1.054c1.789-0.001,3.473-0.23,5.664-1.172l0,0c7.062-3.019,15.084-8.604,15.084-8.604
	c4.5-2.919,19.584-8.819,19.584-8.819c9.394-2.826,17.54-6.428,17.54-6.428c3.121-1.751,4.809-3.49,8.109-7.024l0,0
	c6.069-6.451,13.474-20.119,13.474-20.119c0.533-0.656,2.287-5.61,2.287-5.61c0.894-2.608,3.317-7.75,3.317-7.75
	c0.99-1.496,2.813-3.374,5.65-3.368l0,0c0.536,0.01,1.477,0.182,1.477,0.182c4.004,1.072,8.315,2.996,8.315,2.996
	c1.708-0.618,15.25-4.964,16.799-6.873l0,0c1.526-1.861,13.56-21.255,13.56-21.255"/>
</svg>
