<?xml version="1.0" encoding="utf-8"?>
<!-- Generator: Adobe Illustrator 16.0.0, SVG Export Plug-In . SVG Version: 6.00 Build 0)  -->
<!DOCTYPE svg PUBLIC "-//W3C//DTD SVG 1.1//EN" "http://www.w3.org/Graphics/SVG/1.1/DTD/svg11.dtd">
<svg version="1.1" id="Layer_2" xmlns="http://www.w3.org/2000/svg" xmlns:xlink="http://www.w3.org/1999/xlink" x="0px" y="0px"
	 width="1200px" height="800px" viewBox="-6.092 -85.12 1200 800" enable-background="new -6.092 -85.12 1200 800"
	 xml:space="preserve">
<path fill="none" stroke="#000000" stroke-miterlimit="10" d="M208.916,397.54"/>
<path fill="none" stroke="#000000" stroke-miterlimit="10" d="M208.916,397.54c0,0,13.353,2.229,28.72,4.439
	c15.368,2.211,22.675,4.548,31.104,1.09c8.429-3.457,8.874-6.367,16.49-15.253c7.615-8.89,24.396-29.494,32.406-37.36
	c8.012-7.866,18.51-16.949,27.619-18.712c9.108-1.763,11.698,0.838,18.391-1.13c6.691-1.969,21.05-17.005,38.024-23.417
	c16.97-6.41,59.014-0.042,73.728,2.585c14.712,2.631,42.401,13.216,52.942,19.735c10.54,6.52,33.354,35.767,41,37
	c7.648,1.231,13.907-2.379,18.462-5.696c4.553-3.319,23.373-9.598,27.548-7.109s18.701,9.441,28.269,10.769
	c9.569,1.326,18.417,1.478,23.909,3.671c5.493,2.192,31.693,11.569,42.656,11.378c10.965-0.193,19.496-2.2,25.291-2.957
	c5.793-0.757,64.46-7.157,78.713-8.003c14.254-0.849,34.213-5.334,44.253-6.523c10.039-1.188,61.404-2.271,67.995-3.77
	c6.589-1.5,39.933-14.938,39.933-14.938"/>
</svg>
