<?xml version="1.0" encoding="utf-8"?>
<!-- Generator: Adobe Illustrator 16.0.0, SVG Export Plug-In . SVG Version: 6.00 Build 0)  -->
<!DOCTYPE svg PUBLIC "-//W3C//DTD SVG 1.1//EN" "http://www.w3.org/Graphics/SVG/1.1/DTD/svg11.dtd">
<svg version="1.1" id="Layer_2" xmlns="http://www.w3.org/2000/svg" xmlns:xlink="http://www.w3.org/1999/xlink" x="0px" y="0px"
	 width="1200px" height="800px" viewBox="-6.092 -85.12 1200 800" enable-background="new -6.092 -85.12 1200 800"
	 xml:space="preserve">
<path fill="none" stroke="#000000" stroke-miterlimit="10" d="M208.916,397.54"/>
<path fill="none" stroke="#000000" stroke-miterlimit="10" d="M1021.8,162.566c0,0-8.705-0.799-13.231-3.264
	c-4.528-2.467-11.094-12.688-21.142-11.12c-10.05,1.567-19.461,6.839-27.341,12.219c-7.879,5.381-26.562,16.071-38.966,16.885
	c-12.406,0.814-30.88-5.834-29.553,0.673c1.326,6.506,4.037,12.368,2.376,15.77c-1.66,3.402-35.053,41.603-51.697,42.795
	c-16.645,1.189-33.479-15.091-43.146-13.473c-9.667,1.615-37.405,23.128-45.875,20.689c-8.471-2.439-14.058-14.025-20.99-17.56
	c-6.932-3.533-8.41-16.502-14.129-17.854c-5.72-1.354-59.476-23.461-64.078-35.617c-4.602-12.159,0.059-22.759,1.053-30.029
	c0.994-7.271,8.677-21.171,12.728-23.856c4.049-2.688-38.615-14.729-56.845-16.907c-18.229-2.177-17.899-0.041-25.915-1.962
	c-8.015-1.921-30.431-9.625-36.587-9.457c-6.156,0.169-14.822,6.017-22.063,4.225c-7.24-1.792-13.571-7.813-21.33-5.762
	c-7.759,2.049-9.696,6.321-18.247,5.143c-8.551-1.18-32.604-2.262-48.55-8.028c-15.945-5.769-35.972-15.7-45.944-16.432
	c-9.971-0.732-36.594,1.792-41.859-1.468s-10.982-15.765-16.012-14.789c-5.032,0.979-7.597,8.196-17.248,9.395
	c-9.652,1.196-39.835-4.092-43.965-6.925c-4.133-2.835-10.76-13.124-17.95-15.048c-7.191-1.925-25.34,1.688-38.123-9.478
	c-12.782-11.168-10.697-12.034-13.092-20.576"/>
</svg>
