<?xml version="1.0" encoding="utf-8"?>
<!-- Generator: Adobe Illustrator 16.0.0, SVG Export Plug-In . SVG Version: 6.00 Build 0)  -->
<!DOCTYPE svg PUBLIC "-//W3C//DTD SVG 1.1//EN" "http://www.w3.org/Graphics/SVG/1.1/DTD/svg11.dtd">
<svg version="1.1" id="Layer_2" xmlns="http://www.w3.org/2000/svg" xmlns:xlink="http://www.w3.org/1999/xlink" x="0px" y="0px"
	 width="1200px" height="800px" viewBox="-6.092 -85.12 1200 800" enable-background="new -6.092 -85.12 1200 800"
	 xml:space="preserve">
<path fill="none" stroke="#000000" stroke-miterlimit="10" d="M208.916,397.54"/>
<path fill="none" stroke="#000000" stroke-miterlimit="10" d="M1023.742,186.198c0,0-23.545,2.146-34.043,6.643
	c-10.498,4.5-12.772,8.353-18.301,7.064c-5.528-1.289-27.686-11.333-39.301-9.058c-11.614,2.275-18.209,3.95-19.477,7.181
	c-1.267,3.231,4.091,14.953-0.6,17.096c-4.689,2.142-23.243-0.031-27.5,3.273c-4.256,3.304-13.827,11.82-16.567,14.406
	c-2.74,2.585-14.695,2.562-16.78,7.103c-2.083,4.541-12.307,18.447-17.593,22.817c-5.285,4.371-18.232,10.131-25.776,9.284
	c-7.545-0.849-14.314-9.898-20.048-10.869c-5.732-0.972-32.693,0.388-34.969-0.458c-2.277-0.848-7.916-4.506-11.413-3.476
	c-3.496,1.032-11.086,9.222-14.503,7.95c-3.416-1.274-4.162-12.845-6.312-17.336c-2.15-4.491-9.072-15.5-12.529-15.621
	c-3.455-0.12-16.176,0.975-25.024,1.046c-8.846,0.073-59.099-3.224-65.161-5.744c-6.061-2.52-48.17-29.759-67.741-30.828
	c-19.57-1.069-43.52,2.32-50.98,6.671c-7.461,4.352-13.918,8.481-21.824,8.321c-7.906-0.157-33.31-4.104-39.768-6.251
	c-6.457-2.148-26.393-14.768-29.903-13.352c-3.511,1.414-16.528,10.571-20.272,7.748c-3.745-2.823-6.598-9.085-10.663-13.834
	c-4.064-4.753-17.733-15.302-18.439-19.739c-0.705-4.433,2.418-12.158,2.418-12.158s1.643-22.428-1.175-27.911
	c-2.817-5.483-17.7-30.609-22.638-32.322c-4.936-1.711-17.703,0.533-22.653-0.794c-4.951-1.326-44.769-28.101-48.091-32.062
	c-3.321-3.963-11.234-19.617-25.044-20.486c-13.811-0.87-23.409-1.206-26.947,0.976c-3.537,2.182-18.268,16.66-18.268,16.66"/>
</svg>
