<?xml version="1.0" encoding="utf-8"?>
<!-- Generator: Adobe Illustrator 16.0.0, SVG Export Plug-In . SVG Version: 6.00 Build 0)  -->
<!DOCTYPE svg PUBLIC "-//W3C//DTD SVG 1.1//EN" "http://www.w3.org/Graphics/SVG/1.1/DTD/svg11.dtd">
<svg version="1.1" id="Layer_2" xmlns="http://www.w3.org/2000/svg" xmlns:xlink="http://www.w3.org/1999/xlink" x="0px" y="0px"
	 width="1200px" height="800px" viewBox="-6.092 -85.12 1200 800" enable-background="new -6.092 -85.12 1200 800"
	 xml:space="preserve">
<path fill="none" stroke="#000000" stroke-miterlimit="10" d="M208.916,397.54"/>
<path fill="none" stroke="#000000" stroke-miterlimit="10" d="M921.519,407.903c0,0-3.985-4.576-12.049-4.859
	c-8.064-0.282-58.767,9.284-65.499,9.431c-6.731,0.147-22.879-0.037-35.559,5.287c-12.681,5.321-21.804,13.27-27.543,12.492
	c-5.74-0.778-16.211-8.269-28.593-11.587c-14.908-3.997-45.401-1.303-63.743-9.535c-7.093-3.179-5.408-10.475-12.541-13.324
	c-7.7-3.078-50.569,3.708-57.841,4.197c-7.271,0.489-30.885-12.112-43.681-15.05c-12.797-2.942-62.417,2.487-75.907-2.662
	c-13.489-5.151-37.707-29.966-41.648-38.178c-3.944-8.212-6.831-30.304-8.968-35.051c-2.135-4.748-35.819-7.475-44.968-11.249
	c-9.148-3.776-5.729-6.545-9.489-8.984c-3.757-2.438-39.952-17.549-44.36-17.896c-4.408-0.344-6.366,0.74-8.782-1.651
	c-2.416-2.392-2.796-18.94-6.66-23.882c-3.864-4.94-26.13-27.83-31.312-33.585c-5.183-5.755-12.575-25.045-15.555-27.841
	c-2.979-2.798-41.469-1.648-52.509,0.656c-11.038,2.306-48.275,17.339-53.534,24.651c-5.257,7.314-2.334,6.294-7.109,10.904
	c-4.776,4.606-17.351,12.461-19.958,21.021c-2.607,8.56,4.848,42.682-0.093,52.012c-4.94,9.327-7.476,11.221-5.614,17.987"/>
</svg>
