<?xml version="1.0" encoding="utf-8"?>
<!-- Generator: Adobe Illustrator 16.0.0, SVG Export Plug-In . SVG Version: 6.00 Build 0)  -->
<!DOCTYPE svg PUBLIC "-//W3C//DTD SVG 1.1//EN" "http://www.w3.org/Graphics/SVG/1.1/DTD/svg11.dtd">
<svg version="1.1" id="Layer_2" xmlns="http://www.w3.org/2000/svg" xmlns:xlink="http://www.w3.org/1999/xlink" x="0px" y="0px"
	 width="1200px" height="800px" viewBox="-6.092 -85.12 1200 800" enable-background="new -6.092 -85.12 1200 800"
	 xml:space="preserve">
<path fill="none" stroke="#000000" stroke-miterlimit="10" d="M208.916,397.54"/>
<path fill="none" stroke="#000000" stroke-miterlimit="10" d="M887.157,486.632c0,0-4.632,3.989-11.481,1.288
	c-6.848-2.701-11.556,1.392-30.217-2.75c-6.796-1.508-9.016,13.643-17.182,13.066c-8.167-0.574-8.117-6.627-15.209-10.335
	c-7.093-3.709-14.918-1.803-20.977-2.362c-6.059-0.561-16.951-4.597-23.812-3.232c-6.86,1.363-8.797,9.482-11.298,9.588
	c-2.5,0.106-21.406,1.944-29.069,6.672c-7.663,4.728-11.791,11.941-16.611,12.804c-4.817,0.862-12.835-6.339-16.805-8.209
	c-3.973-1.87-11.569-4.415-16.994-8.656c-5.425-4.239-27.627-27.776-38.918-32.556c-11.29-4.779-42.165-7.399-51.15-14.057
	c-8.983-6.66-32.667-38.631-39.806-43.302c-7.14-4.67-13.668-7.595-19.808-9.346c-6.139-1.752-33.926-20.474-38.167-25.948
	c-4.241-5.474-7.652-16.88-11.125-17.074c-3.471-0.192-18.038,15.476-28.003,14.551c-9.966-0.928-20.334-6.674-23.529-3.327
	c-3.194,3.349-9.664,39.837-14.191,37.374c-4.527-2.467-8.12-26.048-12.883-32.749c-4.761-6.699-16.19-25.764-26.062-29.749
	c-9.873-3.986-24.094-2.773-31.101-0.568c0,0-13.653,3.134-15.977-1.389c-2.256-4.392,0.085-16.421-2.616-15.181
	c-6.11,2.799-9.682,13.167-13.973,13.747c-4.292,0.58-11.853-7.349-13.319-14.885c-1.466-7.536-6.1-24.051-11.074-24.05
	c-4.975,0.002-22.119,4.656-19.353,8.007c2.767,3.349,7.917,13.239-0.831,15.334c-11.877,2.845-28.265-16.905-36.081-14.151
	c-7.813,2.753-4.984,19.086-12.112,15.345c-7.128-3.743-9.978,0.956-13.824-0.485c-3.847-1.441-3.256,6.225-8.42,5.468
	c-5.164-0.758-12.4-4.467-12.4-4.467s8.224-13.513,4.734-18.1c-3.677-4.834-20.711-3.435-20.711-3.435s0.365-9.9-4.14-12.621
	c-4.506-2.719-12.885-11.607-21.227-11.8"/>
</svg>
