<?xml version="1.0" encoding="utf-8"?>
<!-- Generator: Adobe Illustrator 16.0.0, SVG Export Plug-In . SVG Version: 6.00 Build 0)  -->
<!DOCTYPE svg PUBLIC "-//W3C//DTD SVG 1.1//EN" "http://www.w3.org/Graphics/SVG/1.1/DTD/svg11.dtd">
<svg version="1.1" id="Layer_1" xmlns:amcharts="http://amcharts.com/ammap"
	 xmlns="http://www.w3.org/2000/svg" xmlns:xlink="http://www.w3.org/1999/xlink" x="0px" y="0px" width="1200px" height="800px"
	 viewBox="-6.092 -85.12 1200 800" enable-background="new -6.092 -85.12 1200 800" xml:space="preserve">
<g>
	<path id="US-AL" fill="#132756" stroke="#FFFFFF" stroke-width="0.5" d="M799.123,388.978l8.12,27.47l7.16,21.933l3.6,6.75
		l2.17,3.84l-2.688,4.36l-0.212,7.34l1.562,4.14v4.07l-0.08,3.778l1.58,2.75l1.29,2.562l-39.931,4.54l-11.091,2.37l-0.148,1.76
		l5,5.12l-0.61,4.59l-1.14,3.26l-17.79-0.97l-3.521-34.729l0.319-36.57l0.82-29.65l-1.71-4.27l23.397-2.17L799.123,388.978z"/>
	<path id="US-AR" fill="#132756" stroke="#FFFFFF" stroke-width="0.5" d="M722.323,372.418l-0.062,1.89l-1.647,3.32l-3.09,2.42
		l-0.461,3.8l-2.739,3.17l0.647,6.58l-1.987,2.25l-0.24,1.82l-3.23,1.897l0.13,3.29l-2.14,6.223l-2.1,1.42l-3.15,3.277l-1.74,4.79
		l-3.7,8.15l-0.147,5.41l2.51,5.85l-0.68,4.521l-16.229,0.02l-20.921,1.562l-18.528,0.448l0.83-12.938h-4.409l-3.69,0.37
		l-1.029-1.471l0.209-19.899l0.021-22.101l-4.05-23.932l22.26-0.16l20.24-0.64l19.31-0.891l20.91,0.17l1.71,2.7l-1.91,2.57
		l-1.898,2.58l-0.989,2.32L722.323,372.418z"/>
	<path id="US-AZ" fill="#132756" stroke="#FFFFFF" stroke-width="0.5" d="M369.083,337.317l-18.39,127.431l-38.393-5.86
		l-40.979-23.7l-26.48-16.647l2.63-3.921l2.5,0.551l3-4.03l-2.68-3.76l0.03-3.48l-0.15-4.13l4.7-4.357l3.58-9.893l6.55-3.43
		l-2.62-4.99l-1.52-4.68l-0.71-4.21l-0.38-3.221l0.04-2.069l2.03-4.13l0.01-4.54l0.52-4.392l1-4.78l-0.98-3.38l1.81-2.479l3.79,0.78
		l3.14,2.289l2.28,1.381l1.88-3.15l0.93-0.58l3.47-17.92l28.88,5.19l34.438,5.96L369.083,337.317z"/>
	<path id="US-CA" fill="#132756" stroke="#FFFFFF" stroke-width="0.5" d="M203.613,187.678l-17.771,65.649l24.91,38.101
		l24.81,36.729l24.25,34.761l-0.04,2.069l0.38,3.221l0.71,4.21l1.52,4.68l2.62,4.99l-6.55,3.43l-3.58,9.891l-4.7,4.357l0.15,4.13
		l-0.03,3.48l2.68,3.76l-3,4.03l-2.5-0.553l-24.4-2.827l-21.771-3.21l-0.34-8.7l-5.13-13.353l-16.389-18.096l-7.17-2.72l-6.12-9.011
		l-13.93-5.569l-3.65-4.82l1.14-12.6l-11.03-26.87l-5.61-34.54l2.12-4.851l-5.41-9.47l-7.53-22.22l3.25-18.36l-5.08-14.63
		l9.37-16.76l5.37-18.71L203.613,187.678z"/>
	<path id="US-CO" fill="#132756" stroke="#FFFFFF" stroke-width="0.5" d="M500.133,282.768l-2.147,34.87l-2.23,33.22l-17.45-1.33
		l-21.697-1.85l-30.771-3.09l-28.54-3.44l-28.21-3.83l12.84-89.85l17.07,2.359l17.08,2.181l34.229,3.779l17.15,1.61l34.23,2.66
		l-1.513,21.979L500.133,282.768z"/>
	<path id="US-CT" fill="#132756" stroke="#FFFFFF" stroke-width="0.5" d="M1010.713,186.338l3.4,11.939l-0.131,3.48l-7,3.069
		l-9.34,3.62l-11.66,8.5l-1.271-2.54l3.08-3.06l-1.777-1.54l-3.33-17.07l12.657-2.83L1010.713,186.338z"/>
	<path id="US-DC" fill="#132756" stroke="#FFFFFF" stroke-width="0.5" d="M939.593,278.777l-0.188-1.319l-1.853-1.603l1.18-1.359
		l2.69,1.83L939.593,278.777z"/>
	<path id="US-DE" fill="#132756" stroke="#FFFFFF" stroke-width="0.5" d="M962.803,250.277l-2,2.891l1.42,4.149l6.32,11.08
		l7.33,10.2l-11.58,2.66l-7.64-27.9l0.909-2.04l1.311-1.34L962.803,250.277z"/>
	<path id="US-FL" fill="#132756" stroke="#FFFFFF" stroke-width="0.5" d="M891.123,474.178l5.22,16.08l10.58,17.33l11.851,15.47
		l1.529,8.851l12.881,21.75l4.472,20.209l-0.812,20.57l-8.06,5.551l-10.75-1.061l-4.94-9.52l-8.739-4.013l-13.988-17.987
		l-12.521-15.19l-3.46-10.7l1.41-14.38l-6.479-12.06l-14.861-11.801l-12.45-7.107l-21.1,12.35l-5.32-5.84l-19.83-8.17l-22.05,5.1
		l1.14-3.26l0.61-4.59l-5-5.12l0.15-1.76l11.09-2.37l39.93-4.54l3.72,5.75l19.853-1.5l32.27-1.17l2.062,3.729l2.22-2.42l-1.17-7.858
		l2.229-1.142l4.131,1.062L891.123,474.178z"/>
	<path id="US-GA" fill="#132756" stroke="#FFFFFF" stroke-width="0.5" d="M846.413,383.038l-1.771,2.159l-2.369,4.681l5.55,3.03
		l3.43,0.897l4.511,6.61l2.819,3.658l7.34,4.352l1.72,2.6l5.03,2.973l3.04,5.01l6.77,3.58l2.183,4.92l1.53,2.31l-0.393,1.763
		l3.95,1.88l2.58,3.907l0.67,4.291l1.9,0.539l3.479,0.61l-5.649,17.89l-1.608,13.48l-4.188,0.24l-4.132-1.062l-2.229,1.143
		l1.17,7.857l-2.222,2.42l-2.061-3.729l-32.27,1.17l-19.853,1.5l-3.72-5.75l-1.29-2.561l-1.58-2.75l0.08-3.779v-4.07l-1.56-4.14
		l0.21-7.341l2.688-4.359l-2.17-3.84l-3.6-6.75l-7.16-21.932l-8.12-27.471l14.34-1.5l9.87-1.479L846.413,383.038z"/>
	<path id="US-IA" fill="#132756" stroke="#FFFFFF" stroke-width="0.5" d="M684.613,204.688l0.3,1.23l2.35,3.489l-1.39,1.801
		l0.311,4.77l0.789,1.99l1.271,3.55l5.59,1.87l1.83,3.37l1.08,1.67l2.06,1.04l0.95,2.399l2.76,1.65l1.87,1.85l-0.52,6.15l-2.82,5.33
		l-1.04,1.7l-3.81,1.54l-5.79,1.449l-1.32,3.98l2.22,1.65l0.92,3.47l-2.027,4.05l-0.96,3.5l-4.25,3.6l-0.143,4.15l-2.46-1.77
		l-3.479-3.521l-18.87,1.26l-19.892,0.74l-15.5,0.3l-15.528,0.101l-1.15-4.11l0.48-4.06l-0.381-3.91l-1.771-6.55l-1.13-2.71
		l-1.229-0.74l-0.119-5.25l-1.062-3.76l-3.068-4.29l0.05-1.881l-1.062-3.75l-0.738-2.27l0.028-2.08l-2.7-2.54l1.37-3.72l0.893-3.641
		l0.408-2.47l-2.108-3.03l0.06-5.55h2.2l18.11,0.021l22.51-0.63l24.18-0.87L684.613,204.688z"/>
	<path id="US-ID" fill="#132756" stroke="#FFFFFF" stroke-width="0.5" d="M360.573,163.487l0.51,0.5l-9.34,55.811l-49.76-8.96
		l-49.53-10.98l9.6-39.72l2.88-5.97l-0.61-3.2l-2.63-2.2l0.88-3.54l3.42-4.51l4.44-3.59l3.92-6.66l3.44-5.24l2.25-2.54l-0.06-3.57
		l-2.2-2.409l-2.67-5.141l1.06-3.93l-0.62-3.73l6.88-31.199l6.671-28.62l14.56,3.319l-4.08,23.87l2.66,6.84l-0.9,4.04l2.04,4.2
		l3.062,2.89l1.81,4.021l2.801,7.84l3.302,4.09l4.607,1.17l-2.72,4.62l-2.72,5.59l0.119,6.03l-2.119,1.07l-1.021,5.77l2.353,2.79
		l3.647-2.029l2.24-2.83l1.78,1l1.27,3.449l0.41,7.44l2.26,3.35l-0.13,6.051l0.65,1.819l3.14,1.181l1.352,3.63l1.738,6.359
		l3.54-2.56l5.11,1.79l0.83-2.13l8.81,3.02l3.812-0.08l3.061-4.069l1.63,0.909l1.03,3.421L360.573,163.487z"/>
	<path id="US-IL" fill="#132756" stroke="#FFFFFF" stroke-width="0.5" d="M743.273,223.397v0.062l0.66,5.88l5.647,11.47l0,0l0,0
		l2.43,26.18l2.423,26.15l-1.41,6.47l1.6,1.521l1.29,3.77l0.149,3.05l-1.359,1.511l-0.94,3.859l-3.239,5.26l-1.961,6.29l-0.17,4.62
		l0.271,1.67l-1.76,3.32l1.72,2l-3.021,1.92l-3.921,2.24l1.109,4.88l-2.22,2.061l-4.54-1.74l-4.91-0.851l-1.062,2.29l0.962,3.37
		l-3.48-3.27l-1.91,0.729l-2.72-5.39l0.42-3.44l-1.729-5.38l-1.86-0.54l-5.04-4.648l-2.04,0.05l-3.75-2.96l-2.74-3.24l0.9-4.05
		l1.438-3.4l0.739-4.239l-3.6-3.431l-3.261,1.67l-2.069-0.83l-0.511-3.77l-1.721-4.22l-1.681-0.94l-4.22-2.82l-3.551-3.67
		l-3.142-4.51l-1.89-6.7l1.229-5.71l0.143-4.149l4.25-3.601l0.96-3.5l2.029-4.05l-0.921-3.47l-2.221-1.65l1.32-3.979l5.79-1.45
		l3.81-1.54l1.04-1.7l2.82-5.33l0.521-6.149l-1.869-1.851l-2.762-1.649l-0.949-2.4l-2.061-1.04l-1.08-1.67l17.13-1.1l17.511-1.29
		l12.921-0.91l-0.012-0.062h0.063v-0.003H743.273z"/>
	<path id="US-IN" fill="#132756" stroke="#FFFFFF" stroke-width="0.5" d="M795.673,236.498l2.46,20.39l2.58,21.93l1.82,15.61
		l-0.87,1.189l1.99,4.42l-0.55,1.761l-2.961,0.399l-2.521,2.32l-4.271-0.32l0.132,4.37l-2.302,1.94l-1.891,4.14l-2.439,0.99
		l-3.17,7.14l-3.83-1.54l-1.408-2.64l-2.633,4.82l-1.72,2.72l-4.107-2.26l-3.9,2.56l-1.14,2.33l-5.842-2.91l-3.608,2.83l-4.771-1.33
		l0.04,2.51l-2.37-0.38l0.171-4.62l1.961-6.29l3.238-5.26l0.94-3.859l1.358-1.511l-0.148-3.05l-1.29-3.77l-1.601-1.521l1.41-6.47
		l-2.422-26.15l-2.43-26.18l0,0l1.7,1.38l5.75-0.68l4.318-2.94l0,0l18.209-1.84l15.882-1.99L795.673,236.498z"/>
	<path id="US-KS" fill="#132756" stroke="#FFFFFF" stroke-width="0.5" d="M630.643,354.138l-15.959,0.189l-32.738-0.109l-32.75-0.75
		l-18.183-0.69l-18.159-0.899l-17.101-1.021l2.23-33.22l2.147-34.87h0.03l30.438,1.73l22.659,0.909l40.12,0.811H617.4l4.17,2.99
		l2.27-0.07l0.54,3.28l-2.42,4.229l1.36,2.14l2.229,4.74l4.67,2.08l0.183,24.29L630.643,354.138z"/>
	<path id="US-KY" fill="#132756" stroke="#FFFFFF" stroke-width="0.5" d="M843.963,304.607l0.65,2.08l0.5,4.67l2.64,3.19l1.37,3.27
		l3.04,2.521l2.2,2.439l3.54-0.12l-6.14,7.771l-5.213,3.46l-0.17,1.88l-1.56,2.65l-4.552,3.39l-1.311,2.41l-3.529,1.92l-5.051,1.99
		l-12.18,2.369l-16.12,1.021l-5.19,0.89l-10.5,0.54l-10.657,0.95l-9.812,0.86l-11.33,1.7l-0.68-0.98l-3.61,0.37l0.37,3.55
		l-26.1,1.87l3.92-2.68l2.75-2.101l-0.62-3.529l0.4-2.312l-0.961-3.37l1.061-2.29l4.91,0.851l4.54,1.739l2.22-2.06l-1.109-4.88
		l3.92-2.24l3.021-1.92l-1.72-2l1.76-3.32l-0.271-1.67l2.37,0.38l-0.04-2.51l4.771,1.33l3.608-2.83l5.842,2.91l1.14-2.33l3.9-2.56
		l4.107,2.26l1.722-2.721l2.631-4.819l1.408,2.64l3.83,1.54l3.17-7.14l2.439-0.99l1.891-4.14l2.302-1.94l-0.132-4.37l4.271,0.32
		l2.521-2.32l2.961-0.399l0.55-1.761l-1.99-4.42l0.87-1.189l6.07-0.23l3.38,1.771l5.34,4.47l3.94,1.09l2.959,1.45l4.108-1.2
		l3.28,0.86l3.6-1.771l3.28-0.87l1.858,2.939L843.963,304.607z"/>
	<path id="US-LA" fill="#132756" stroke="#FFFFFF" stroke-width="0.5" d="M698.493,442.498l1.44,1.229l-1.57,3.38l3.04,4.53
		l-0.643,2.86l2.71,3.777l-2.56,2.48l-0.66,4.35l-3.567,3.75l-1.513,4.87l-1.5,5.59l-2.27,2.671l1.067,5.659l17.381-0.2l18.529-1.13
		l-0.3,3.83l-1.05,3.83l1.449,2.8l2.778,2.472l0.972,3.729l0.528,2.24l-1.63,9.68l7.222,13.29l-27.62,2.71l-17.33-3.78
		l-11.789-4.197l-15.34-2.4l-17.36-0.188l-1.72-2.989l1.948-3.41l2.909-3.101l-0.06-4.569l-1.49-1.49l1.59-5.51l1.2-2.51l1.68-8.41
		l-1.829-3.07l-2.398-5.14l-1.8-5.25l-1.17-3.5l-3.25-2.5l-1.711-24.353l18.528-0.448l20.92-1.562L698.493,442.498z"/>
	<path id="US-MA" fill="#132756" stroke="#FFFFFF" stroke-width="0.5" d="M1021.503,163.228l3.14,11.64l8.69,10.04l6.92-1.42
		l-4.03-7.46l6.301,3.41l0.521,6.61l-10.021,6.739l-8.01,1.811l-1.391-3.21l-3.28-1.79l-2.81-5.4l-6.82,2.141l-15.37,3.569
		l-12.659,2.83l-0.341-16.069l13.48-3.12l19.59-5.12l1.069-2.63l3-2.44L1021.503,163.228z"/>
	<path id="US-MD" fill="#132756" stroke="#FFFFFF" stroke-width="0.5" d="M956.653,253.357l7.64,27.9l11.58-2.66l1.439,1.77
		l-4.949,9.13l-3.98,1.271l-1.027,1.83l-11.262-8.58l-4.42-16.45l-1.131,8.42l4.439,19.12l-11.909-4.33l-1.681-2.899l-2.642,1.56
		l-2.567-0.729l0.949-5.36l2.528-2.71l-0.069-1.86l1.829-2.45l-2.688-1.829l-1.18,1.358l-3.74-1.8l-3.93-0.58l0.771-2.65
		l-2.63-1.199l-2.69-0.23l-1.93-2.56l-2.74-2.75l-5.67-0.7l-2.979,2.33l-1.561,2.02l-5.26,0.09l-1.86,2.771l-3.26,1.53l-2.49,3.119
		l-2.29,2.49l-1.93-11.35l15.97-2.99l5.44-1.11l12.16-2.55l14.67-2.989L956.653,253.357z"/>
	<path id="US-ME" fill="#132756" stroke="#FFFFFF" stroke-width="0.5" d="M1022.823,157.537l-1.63,0.7l-1.61-2.84l-3.87-2.41
		l-0.01-2.33l-13.29-39.35l5.31-5.64l2.58-11.561l-0.35-18.46l6.5-20.01l6.72,4.26l8.841-6.83l8.629,4.2l9.521,29.729l13.99,9.03
		l3.238,9.15l-12.858,11.77l-13.591,9.851l-13.989,18.47L1022.823,157.537z"/>
	<path id="US-MI" fill="#132756" stroke="#FFFFFF" stroke-width="0.5" d="M786.184,126.027L786.184,126.027l5.319,0.03l0,0
		l-1.7,2.51l9.03,8.01l-13.66,3.851l-0.54-0.04l-12.74-0.9l-11.867,5.92l-10.61,3.16l-8.01,15.38l-0.433-0.12l-0.01,0.04
		l-2.39-2.489l0.85-3.771l-3.55,0.12l0.4-3.76l0.81-1.92l-1.7-3.07l-3.89-1.11l-1.2-3.67l-3.12-0.029l-4.489,0.34l-9.471-3.391
		l-14.14-3.119l-1.54-4.03l-2.521-0.59l-0.02-0.07l-0.95,0.53l-0.15-0.11l0.143,0.1l11.76-6.619l12-8.351l13.09-8.729l-3.948,12.489
		l9.129,2.131l11.892,7.63l13.42-6.53l15.16-3.76l4.06,5.97l4.91,0.32L786.184,126.027z M831.732,201.378L831.732,201.378
		l-0.369,0.359l-5.98,13.521l-2.54,8.399l0,0l-4.54,9.49l0,0l-6.33,1.07l-7.68,1.01l-8.62,1.26l-0.229-1.76l-15.88,1.99
		l-18.211,1.84l0,0l0,0l3.101-3.48l5.66-11.729l-1.15-14.96l-6.97-13.41l-0.19-9.69l3.062-11.569l3.199-8.061l5.818-6.159l2.38,7.43
		l1.521-11.521l3.25-2.729l1.18-8.891l14.08,2.82l13,7.22l2.75,10.08l-0.03,10.5l-7.71,10.261l1.603,5.569l3.278-0.25l8.729-11.34
		l6.35,1.38l4.893,12.62l2.21,9.103L831.732,201.378z"/>
	<path id="US-MN" fill="#132756" stroke="#FFFFFF" stroke-width="0.5" d="M704.293,100.178l-0.01,0.01l-15.26,8.59l-10.53,9.78
		l-10.16,10.17l0.101,3.36l-4.101,1.449l0.69,12.82h-0.5l-3.842,2.68l-3.318,2.32l-2.131,4.28l3.521,4.16l-1.021,5.779l0.211,6.19
		l-0.32,5.03l4.91,4.21l1.949,0.13l5.408,3.02l1.9,1.46l1.26,2.4l4.312,3.72l5.72,3.09l0.63,1.851l0.33,5.47l0.57,2.54l-21.73,0.57
		l-24.18,0.87l-22.51,0.63l-18.11-0.021l0.33-21.279l-1.851-21.853l-2.802-1.8l-1.56-3.54l0.89-3.09l3.603-2.53l0.3-3.32l0.03-4.159
		l-0.973-3.48l-1.3-3.72l-0.729-4.66l-0.15-5.22l-0.521-1.261l-0.58-6.729l-0.029-3.09l-0.28-2.75l-0.729-4.66l-1.829-4.74
		l-1.74-4.229l-0.21-4.181l-0.143-4.51l0.562-2.94l0.13-2.68l-1.38-3.34l-0.189-2.27l31.432,0.09l-0.053-8.87l5.11-0.181
		l2.86,12.641l4.81,3.83l10.7,1.18l15.729,3.17l15.189,6.5l12.28-3.649l19.29,4.76L704.293,100.178L704.293,100.178z"/>
	<path id="US-MO" fill="#132756" stroke="#FFFFFF" stroke-width="0.5" d="M684.843,275.938l-1.229,5.71l1.89,6.7l3.141,4.51
		l3.552,3.67l4.22,2.82l1.68,0.94l1.721,4.22l0.512,3.77l2.068,0.83l3.262-1.67l3.6,3.43l-0.74,4.24l-1.438,3.4l-0.9,4.05l2.74,3.24
		l3.75,2.96l2.04-0.05l5.04,4.647l1.859,0.54l1.729,5.38l-0.42,3.44l2.72,5.39l1.91-0.729l3.479,3.27l-0.399,2.312l0.62,3.529
		l-2.75,2.101l-3.92,2.68l-0.32,2.22l-0.891,3.311l-1.039,5.62l-12,0.79l0.988-2.32l1.899-2.58l1.91-2.57l-1.71-2.7l-20.91-0.17
		l-19.31,0.891l-20.24,0.64l-22.26,0.16l0.038-10.42h-0.091l-0.238-24.24l-0.182-24.29l-4.67-2.08l-2.229-4.739l-1.359-2.141
		l2.42-4.229l-0.54-3.28l-2.271,0.07l-4.17-2.99l-2.3-4.83l-2.712-2.89l-2.93-3.58l-0.351-1.87l15.528-0.101l15.5-0.3l19.892-0.74
		l18.871-1.26l3.479,3.521L684.843,275.938z"/>
	<path id="US-MS" fill="#132756" stroke="#FFFFFF" stroke-width="0.5" d="M751.823,393.418l1.71,4.27l-0.82,29.65l-0.32,36.57
		l3.521,34.729l-11.72,6.11l-11.433,0.47l-0.527-2.24l-0.973-3.729l-2.777-2.473l-1.45-2.8l1.05-3.83l0.3-3.83l-18.528,1.132
		l-17.381,0.198l-1.068-5.657l2.27-2.673l1.5-5.59l1.512-4.87l3.568-3.75l0.66-4.35l2.561-2.48l-2.711-3.777l0.643-2.86l-3.04-4.53
		l1.569-3.38l-1.439-1.229l0.68-4.521l-2.51-5.85l0.148-5.41l3.699-8.15l1.74-4.79l3.15-3.277l2.1-1.42l2.141-6.223l-0.131-3.29
		l3.23-1.897l0.24-1.82l18.357-1.28L751.823,393.418z"/>
	<path id="US-MT" fill="#132756" stroke="#FFFFFF" stroke-width="0.5" d="M477.713,145.098l-2.68,20.78l-26.83-2.881l-28.95-3.289
		l-24.91-3.65l-31.5-4.76l-1.84,11.439l-0.43,0.75l-1.54-1.529l-1.03-3.421l-1.63-0.909l-3.061,4.069l-3.812,0.08l-8.81-3.02
		l-0.83,2.13l-5.11-1.79l-3.54,2.56l-1.74-6.359l-1.35-3.63l-3.14-1.181l-0.65-1.819l0.13-6.051l-2.26-3.35l-0.41-7.44l-1.27-3.449
		l-1.78-1l-2.24,2.83l-3.647,2.029l-2.353-2.79l1.021-5.77l2.118-1.07l-0.118-6.03l2.72-5.59l2.72-4.62l-4.608-1.17l-3.302-4.09
		l-2.8-7.84l-1.81-4.02l-3.062-2.891l-2.04-4.2l0.9-4.04l-2.66-6.84l4.08-23.87l44.43,9.17l44.721,7.7l44.949,6.23l45.131,4.75
		l-3.521,42.05L477.713,145.098z"/>
	<path id="US-NC" fill="#132756" stroke="#FFFFFF" stroke-width="0.5" d="M971.083,323.857l7.54,21.57l-7.91,19.03l-16.189,12.409
		l-13.568,14.44l-6.33,2.61l-24.71-17.24l-20.54,3.37l-0.393-2.62l-3.52-3.311l-1.609,1.79l-0.471-1.949l-8.79,0.369l-17.03,2.46
		l-9.397,5.32l-1.75,0.933l-23.08,2.96l-0.21-4.82l3.729-1.93l0.949-2.58l2.25-3.08l3.65-1.101l4.18-1.63l3.92-2.53l1.53-2.239
		l3.229-2.3l-0.33-1.61l4.148-3.72l1.771,1.76l6.091-5.25l3.21-0.04l2.21-4.2l3.54-1.55l-0.7-3.17l0.011-2.891l30.609-4.149
		l35.859-6.68l18.938-4.11L971.083,323.857z"/>
	<path id="US-ND" fill="#132756" stroke="#FFFFFF" stroke-width="0.5" d="M586.934,80.708l0.189,2.27l1.38,3.34l-0.13,2.68
		l-0.561,2.94l0.141,4.51l0.21,4.181l1.74,4.229l1.83,4.74l0.729,4.66l0.28,2.75l0.03,3.09l0.58,6.729l0.52,1.261l0.15,5.22
		l0.729,4.66l1.3,3.72l0.973,3.48l-0.03,4.159l-30.353,0.75l-25.897-0.979l-32.65-1.73l-30.38-2.27l1.66-27.79l3.521-42.05
		l52.431,3.739L586.934,80.708z"/>
	<path id="US-NE" fill="#132756" stroke="#FFFFFF" stroke-width="0.5" d="M597.934,229.768l0.739,2.27l1.062,3.75l-0.052,1.881
		l3.069,4.29l1.06,3.76l0.121,5.25l1.229,0.74l1.13,2.71l1.77,6.55l0.383,3.91l-0.48,4.06l1.15,4.11l0.35,1.87l2.932,3.579
		l2.711,2.891l2.3,4.83h-24.024l-40.12-0.811l-22.659-0.91l-30.438-1.729h-0.03l0.04-0.73l1.513-21.979l-34.23-2.66l3.88-45.18
		l32.5,2.529l25,1.479l33.45,1.32l4.24,2.989l6.107,1.96l1.46-1.01l3.98,0.16l5.979-0.13l4.29,2.979l4.58,1.939l0.75,1.9l1.44,1.1
		L597.934,229.768z"/>
	<path id="US-NH" fill="#132756" stroke="#FFFFFF" stroke-width="0.5" d="M1022.823,157.537l-1.32,5.69l-2.021,0.13l-3,2.44
		l-1.069,2.63l-19.59,5.12l-1.9-1.94l0.521-3.188l-1.143-5.87l0.132-1.51l-0.842-5.341l0.58-4.859l0.79-2.271l0.49-5.72l-0.591-3.64
		l-0.051-2.28l2.762-1.89l2.828-3.521l-0.129-2.9l-2.029-2.83l0.18-6.489l-0.03-0.011l0.052-5.851l4.971-2.13l13.29,39.35l0.01,2.33
		l3.87,2.41l1.609,2.84L1022.823,157.537z"/>
	<path id="US-NJ" fill="#132756" stroke="#FFFFFF" stroke-width="0.5" d="M981.843,218.558l-3.12,12.14l4.45-0.069l0.99,16.59
		l-8.38,19.97l-2.62-5.37l-4.04-0.26l-5.45-4.83l-1.45,0.59l-1.42-4.149l2-2.891l3.021-2.83l0.898-1.66l3.34-3.869l1.609-2.92
		l-6.67-4.461l-0.84-2.27l-1.99-0.26l-0.75-3.57l1.33-3.16l-1.568-2.67l2.221-2.57l1.75-5.63l1.8-1.46L981.843,218.558z"/>
	<path id="US-NM" fill="#132756" stroke="#FFFFFF" stroke-width="0.5" d="M478.303,349.527l-0.84,11.221l-4.58,59.31l-3.3,42.72
		l-17.979-1.479l-34.841-3.4l-17.39-1.96l-0.02,1.96l1.75,3.87l-33.33-4.188l-1.513,9.3l-15.567-2.13l18.39-127.431l28.21,3.83
		l28.54,3.44l30.771,3.09L478.303,349.527z"/>
	<path id="US-NV" fill="#132756" stroke="#FFFFFF" stroke-width="0.5" d="M301.983,210.838l-22.29,111.18l-3.47,17.92l-0.93,0.58
		l-1.88,3.15l-2.28-1.381l-3.14-2.29l-3.79-0.779l-1.81,2.479l0.98,3.38l-1,4.78l-0.52,4.393l-0.01,4.54l-2.03,4.13l-24.25-34.761
		l-24.81-36.731l-24.91-38.101l17.771-65.649l48.82,12.24l0.02-0.062L301.983,210.838z"/>
	<path id="US-NY" fill="#132756" stroke="#FFFFFF" stroke-width="0.5" d="M982.343,176.668l0.341,16.069l3.33,17.07l1.779,1.54
		l-3.08,3.06l1.27,2.54l22.781-9.06l6.029,2.83l-21.62,12.72l-10.67,2.73l-0.659-7.61l-14.891-5.61l-3.061-0.92l-3.189-0.87
		l-1.83-2.96l-0.13-2.54l-2.44-1.54l-4.397-2.64l-22.472,4.97l-24.17,5.011l-25.961,4.92l-1.1-6.061l11.73-15.95l-0.723-2.08
		l-0.01-0.06l-3.46-6.03l7.97-4.439l12.96-1.721l13.71-0.93l10.562-9.979l-2.87-8.44l-2.591-3.06l-0.069-0.021l0.01-0.01l0.07,0.03
		l13.05-18.88l6.17-5.761l23.85-6.02l0.82,4.56l0.09,3.01l2.053,6.461l1.729,3.147l-0.438,4.97l2.931,5.4l-0.21,3.46l0.51,0.76
		l2.341-0.42L982.343,176.668z"/>
	<path id="US-OH" fill="#132756" stroke="#FFFFFF" stroke-width="0.5" d="M871.863,249.018l-2.17,1.52l1.21,2.721l0.079,5.29
		l-0.779,6.12l-0.86,5.109l0.103,2.351l-3.86,5.89l-1.83,1.42l-2.237,1.01l-2.183-0.16l-3.271,4.471l-0.068,4.149l-0.2,2.271
		l-1.42,1.13l-0.608-2.46l-2.45-0.18l-1.722,5.239l0.48,5.011l-1.82,3.46l-4.29,1.229l-3.607-1.67l-1.86-2.938l-3.279,0.869
		l-3.601,1.771l-3.28-0.86l-4.109,1.2l-2.959-1.45l-3.939-1.09l-5.34-4.47l-3.38-1.771l-6.07,0.23l-1.82-15.61l-2.579-21.93
		l-2.461-20.39l8.62-1.261l7.682-1.01l6.329-1.08l0,0v0.01l11.069,3.171l8.591-0.101l11.75-4.89l8.939-7.82l8.1-4.47
		L871.863,249.018z"/>
	<path id="US-OK" fill="#132756" stroke="#FFFFFF" stroke-width="0.5" d="M630.693,364.558l4.05,23.931l-0.021,22.102l-0.21,19.898
		l-8.237-4.341l-5.341-2.357l-4.302,1.567l-6.67-0.21l-3.95,0.04l-3.25,1.853l-3.18,0.938l-2.78-1.13l-6.35,1.19l-2.84-3.82l-3,3.25
		l-5.16-1.54l-5.25-3.62l-5.74,2.16l-2.358-5.53l-8.819,0.312l-5.59-1.393l-6.28-1.83l-2.63-4.81l-5.011,1.33l-2.989-1.98
		l-4.381-2.63l0.961-21.66l0.97-22.208l-18.3-0.91l-18.302-1.1l-18.271-1.31l0.84-11.221l17.45,1.33l17.102,1.021l18.158,0.899
		l18.183,0.69l32.75,0.75l32.738,0.109l15.959-0.189h0.091L630.693,364.558z"/>
	<path id="US-OR" fill="#132756" stroke="#FFFFFF" stroke-width="0.5" d="M275.113,111.567l2.67,5.141l2.2,2.409l0.06,3.57
		l-2.25,2.54l-3.44,5.24l-3.92,6.66l-4.44,3.59l-3.42,4.51l-0.88,3.54l2.63,2.2l0.61,3.2l-2.88,5.97l-9.6,39.72l-0.02,0.062
		l-48.82-12.24l-68.45-20.38l-1.26-13.8l12.32-21.65l8.93-24.11l13.21-31.97l3.229,0.69l4.59,1.56l3.07,3.13l4.03,2.61l1.56,5.04
		l-0.71,3.79l0.21,3.41l3.3,1.898l3.8,1.062l6.63-0.57l3.69,0.31l5.23,2.521l2.1,1.84l3.45,0.13l4.01-0.8l6.88,2.21l6.39-0.89
		l3.49-0.99l3.68,2.01l6.14-0.87L275.113,111.567z"/>
	<path id="US-PA" fill="#132756" stroke="#FFFFFF" stroke-width="0.5" d="M966.953,212.947l-1.8,1.46l-1.75,5.63l-2.22,2.57
		l1.567,2.67l-1.33,3.16l0.75,3.57l1.99,0.26l0.84,2.27l6.67,4.461l-1.608,2.92l-3.34,3.87l-0.899,1.659l-3.021,2.83l-3.93-0.3
		l-1.312,1.34l-0.908,2.04l-15.051,3.392l-14.67,2.989l-12.16,2.551l-5.439,1.108l-15.97,2.99l-17.96,3.2l-3.54-20.57l-5.11-29.97
		l0,0l11.42-8.69l0.03-0.04l1.101,6.061l25.961-4.92l24.17-5.011l22.471-4.97l4.398,2.64l2.439,1.54l0.13,2.54l1.83,2.96l3.188,0.87
		L966.953,212.947z"/>
	<path id="US-RI" fill="#132756" stroke="#FFFFFF" stroke-width="0.5" d="M1025.014,194.598l-11.031,7.16l0.133-3.48l-3.4-11.939
		l6.82-2.141l2.81,5.4l3.28,1.79L1025.014,194.598z"/>
	<path id="US-SC" fill="#132756" stroke="#FFFFFF" stroke-width="0.5" d="M934.623,393.918l-4.35,17.109l-13.933,16.92l-17.96,14.86
		l-3.479-0.61l-1.9-0.539l-0.67-4.289l-2.58-3.909l-3.95-1.88l0.392-1.763l-1.529-2.31l-2.182-4.92l-6.771-3.58l-3.04-5.01
		l-5.029-2.973l-1.721-2.6l-7.34-4.35l-2.819-3.66l-4.511-6.61l-3.43-0.897l-5.551-3.03l2.369-4.681l1.771-2.159l1.75-0.933
		l9.398-5.32l17.029-2.46l8.79-0.369l0.472,1.949l1.608-1.79l3.521,3.311l0.392,2.62l20.54-3.37L934.623,393.918z"/>
	<path id="US-SD" fill="#132756" stroke="#FFFFFF" stroke-width="0.5" d="M598.083,206.737h-2.2l-0.06,5.55l2.11,3.03l-0.41,2.47
		l-0.891,3.641l-1.37,3.72l2.7,2.54l-0.029,2.08l-2.818-0.33l-1.44-1.1l-0.75-1.9l-4.58-1.938l-4.29-2.98l-5.979,0.13l-3.98-0.16
		l-1.46,1.011l-6.107-1.961l-4.24-2.989l-33.45-1.32l-25-1.479l-32.5-2.53l3.7-46.34l2.68-20.78l30.38,2.27l32.65,1.73l25.898,0.979
		l30.352-0.75l-0.3,3.32l-3.603,2.53l-0.89,3.09l1.562,3.54l2.8,1.8l1.851,21.852L598.083,206.737z"/>
	<path id="US-TN" fill="#132756" stroke="#FFFFFF" stroke-width="0.5" d="M830.383,348.128l27.03-3.141l9.101-1.87l-0.011,2.891
		l0.7,3.17l-3.54,1.55l-2.21,4.2l-3.21,0.04l-6.09,5.25l-1.771-1.76l-4.148,3.72l0.329,1.609l-3.229,2.301l-1.529,2.239l-3.921,2.53
		l-4.18,1.63l-3.649,1.101l-2.25,3.08l-0.949,2.579l-3.729,1.931l0.21,4.82l-9.87,1.479l-14.34,1.5l-23.899,2.271l-23.398,2.17
		l-20.48,1.147l-18.357,1.28l1.988-2.25l-0.648-6.58l2.739-3.17l0.461-3.8l3.09-2.42l1.649-3.32l0.061-1.89l1.04-5.62l0.89-3.311
		l0.32-2.22l26.1-1.87l-0.369-3.55l3.609-0.37l0.68,0.98l11.33-1.7l9.812-0.86l10.659-0.95l10.5-0.54l5.188-0.89l16.12-1.021
		L830.383,348.128z"/>
	<path id="US-TX" fill="#132756" stroke="#FFFFFF" stroke-width="0.5" d="M634.513,430.488l1.03,1.472l3.69-0.37h4.409l-0.83,12.938
		l1.711,24.353l3.25,2.5l1.17,3.5l1.8,5.25l2.399,5.14l1.828,3.07l-1.68,8.41l-1.2,2.51l-1.59,5.51l1.49,1.49l0.06,4.57l-2.909,3.1
		l-1.948,3.41l1.72,2.99l-17.021,5.14l-18.198,17.2l-20.211,9.897l-11.26,10.891l-4.869,10.31l-0.438,15.94l0.87,11.13l3.87,7.95
		l-8.2,0.567l-14.78-5.408l-16.09-7.659l-5.45-11.07l-3.93-16.33l-11.54-13.64l-6.392-13.801l-9.289-16.238l-13.58-9.95
		l-16.353-0.65l-13.989,17.143l-16.108-8.25l-9.72-7.841l-3.762-13.022l-5.39-12.54l-10.63-11.21l-9.19-8.26l-6.159-8.86l-1.75-3.87
		l0.021-1.96l17.39,1.96l34.843,3.4l17.979,1.479l3.3-42.72l4.58-59.31l18.271,1.31l18.3,1.1l18.3,0.91l-0.97,22.208l-0.96,21.66
		l4.38,2.63l2.99,1.98l5.01-1.33l2.63,4.81l6.28,1.83l5.59,1.393l8.82-0.312l2.357,5.53l5.74-2.16l5.25,3.62l5.16,1.54l3-3.25
		l2.84,3.82l6.35-1.19l2.78,1.13l3.18-0.938l3.25-1.853l3.95-0.04l6.67,0.21l4.303-1.567l5.34,2.357L634.513,430.488z"/>
	<path id="US-UT" fill="#132756" stroke="#FFFFFF" stroke-width="0.5" d="M381.923,247.468l-12.84,89.85l-26.07-4.149l-34.438-5.96
		l-28.88-5.19l22.29-111.18l49.76,8.96l-3.72,21.79L381.923,247.468z"/>
	<path id="US-VA" fill="#132756" stroke="#FFFFFF" stroke-width="0.5" d="M925.333,269.397l2.681,0.24l2.642,1.189l-0.78,2.65
		l3.932,0.58l3.75,1.8l1.84,1.603l0.188,1.319l0.07,1.86l-2.521,2.71l-0.949,5.36l2.568,0.72l2.641-1.561l1.682,2.91l13.729,10.021
		l5.74,9.84l0.35,0.6l8.201,12.61l-19.16,4.32l-18.931,4.108l-35.87,6.68l-30.607,4.16l-9.102,1.87l-27.041,3.141l5.062-2
		l3.527-1.921l1.303-2.42l4.55-3.38l1.568-2.649l0.17-1.88l5.212-3.46l6.13-7.78l1.39,3.68l2.33,1.71l3.012,1.37l5.211-3.61
		l2.408,1.221l6.359-2.98l0.05-2.07l2.15,0.45l1.93-2.01l2.54-0.11l2.53-2.22l0.028-2.11l-0.772-2.53l1.72-4.29l2.9-3.521
		l0.279-3.449l2.301-4.511l0.8-5.16l2.64,1.301l2.9,1.109l2.359-1.33l0.461-2.189l1.197-3.09l1.342-3.53l1.438,0.69l2.03-3.37
		l2.84-3.57l1.72-2.63l0.2-6.19l10.03,4.261L925.333,269.397z M964.684,308.888l1.812,0.52l5.88-19.91l-3.99,1.271l-1.027,1.82
		L964.684,308.888z"/>
	<path id="US-VT" fill="#132756" stroke="#FFFFFF" stroke-width="0.5" d="M995.823,173.548l-13.48,3.12l-3.96-18.351l-2.34,0.42
		l-0.51-0.76l0.21-3.46l-2.931-5.4l0.438-4.97L971.521,141l-2.052-6.461l-0.09-3.01l-0.819-4.56l28.83-7.68l0.029,0.01l-0.18,6.49
		l2.029,2.829l0.131,2.9l-2.83,3.521l-2.762,1.89l0.051,2.28l0.591,3.64l-0.49,5.72l-0.79,2.271l-0.58,4.859l0.842,5.341
		l-0.131,1.51l1.141,5.87l-0.521,3.188L995.823,173.548z"/>
	<path id="US-WA" fill="#132756" stroke="#FFFFFF" stroke-width="0.5" d="M289.104,44.088l-6.67,28.62l-6.883,31.199l0.62,3.73
		l-1.06,3.93l-31.98-7.71l-6.14,0.87l-3.68-2.01l-3.49,0.99l-6.39,0.89l-6.88-2.21l-4.01,0.8l-3.45-0.13l-2.1-1.84l-5.23-2.521
		l-3.688-0.31l-6.63,0.57l-3.8-1.062l-3.3-1.9l-0.21-3.409l0.71-3.79l-1.56-5.04l-4.03-2.61l-3.07-3.13l-4.59-1.56l-3.229-0.69
		l1.7-19.45l4.33-21.82l19.27,10.45l1.35,19.221l5.44-4.7l3.03-18.771l-1.42-20.29l43.32,12.58L289.104,44.088z"/>
	<path id="US-WI" fill="#132756" stroke="#FFFFFF" stroke-width="0.5" d="M693.893,133.737l0.15,0.11l0.94-0.54l0.02,0.07l2.53,0.6
		l1.54,4.03l14.13,3.109l9.48,3.391l4.479-0.33l3.12,0.03l1.2,3.67l3.897,1.109l1.7,3.07l-0.81,1.92l-0.4,3.76l3.55-0.12
		l-0.85,3.771l2.39,2.49l0.011-0.04l0.432,0.12l-0.13,0.229l-5.591,8.771l2.438,2.489l10.479-15.75l2.408-0.319l-6.688,18.29
		l-2.22,16.149l-1.973,13.11l3.08,10.91l0.062,5.56h-0.062l0.011,0.062l-12.921,0.909l-17.51,1.29l-17.13,1.101l-1.83-3.37
		l-5.59-1.87l-1.271-3.55l-0.789-1.99l-0.305-4.771l1.39-1.801l-2.35-3.489l-0.3-1.23l-0.57-2.54l-0.33-5.47l-0.63-1.851l-5.72-3.09
		l-4.312-3.72l-1.26-2.4l-1.898-1.46l-5.409-3.02l-1.95-0.13l-4.91-4.21l0.32-5.03l-0.21-6.19l1.02-5.779l-3.52-4.16l2.13-4.28
		l3.32-2.32l3.84-2.68h0.5l-0.69-12.82l4.101-1.449l0,0l15.512-5.551L693.893,133.737z"/>
	<path id="US-WV" fill="#132756" stroke="#FFFFFF" stroke-width="0.5" d="M893.363,266.388l1.93,11.35l2.29-2.489l2.49-3.12
		l3.26-1.53l1.86-2.771l5.26-0.09l1.561-2.02l2.979-2.33l5.67,0.7l2.739,2.75l1.931,2.56l-1.09,4.57l-10.03-4.26l-0.199,6.188
		l-1.721,2.63l-2.84,3.57l-2.03,3.37l-1.44-0.69l-1.35,3.521l-1.199,3.1l-0.461,2.18l-2.35,1.33l-2.91-1.109l-2.64-1.3l-0.8,5.159
		l-2.303,4.511l-0.277,3.449l-2.893,3.521l-1.728,4.292l0.75,2.57l-0.03,2.107l-2.52,2.22l-2.541,0.11l-1.932,2.01l-2.148-0.46
		l-0.049,2.07l-6.36,2.979l-2.41-1.229l-5.21,3.61l-3-1.37l-2.34-1.71l-1.381-3.681l-3.539,0.12l-2.2-2.439l-3.04-2.521l-1.37-3.27
		l-2.64-3.19l-0.5-4.67l-0.65-2.08l4.29-1.229l1.82-3.46l-0.48-5.011l1.72-5.239l2.451,0.18l0.609,2.46l1.42-1.13l0.2-2.271
		l0.069-4.149l3.271-4.471l2.181,0.16l2.239-1.01l1.83-1.42l3.86-5.89l-0.103-2.351l0.86-5.109l0.777-6.12l-0.078-5.29l-1.211-2.721
		l2.17-1.52l3.541,20.57L893.363,266.388z"/>
	<path id="US-WY" fill="#132756" stroke="#FFFFFF" stroke-width="0.5" d="M475.033,165.878l-3.7,46.34l-3.88,45.18l-17.15-1.61
		l-34.229-3.779l-17.08-2.181l-17.07-2.359l-33.897-5.88l3.72-21.79l9.34-55.811l-0.51-0.5l0.43-0.75l1.84-11.439l31.5,4.76
		l24.91,3.65l28.95,3.29L475.033,165.878z"/>
</g>
</svg>
