<?xml version="1.0" encoding="utf-8"?>
<!-- Generator: Adobe Illustrator 16.0.0, SVG Export Plug-In . SVG Version: 6.00 Build 0)  -->
<!DOCTYPE svg PUBLIC "-//W3C//DTD SVG 1.1//EN" "http://www.w3.org/Graphics/SVG/1.1/DTD/svg11.dtd">
<svg version="1.1" id="Layer_1" xmlns="http://www.w3.org/2000/svg" xmlns:xlink="http://www.w3.org/1999/xlink" x="0px" y="0px"
	 width="400px" height="400px" viewBox="0 0 400 400" enable-background="new 0 0 400 400" xml:space="preserve">
<g>
	<g>
		<path fill="#FFFFFF" d="M200.004,0C89.553,0,0,89.546,0,200.019C0,310.461,89.553,400,200.004,400
			C310.453,400,400,310.461,400,200.019C400,89.546,310.453,0,200.004,0z M200.004,388.09c-103.9,0-188.094-84.188-188.094-188.071
			c0-103.891,84.193-188.104,188.094-188.104c103.857,0,188.09,84.214,188.09,188.104
			C388.094,303.902,303.861,388.09,200.004,388.09z"/>
		<path fill="#FFFFFF" d="M200.004,11.914c-103.9,0-188.094,84.214-188.094,188.104c0,103.884,84.193,188.071,188.094,188.071
			c103.857,0,188.09-84.188,188.09-188.071C388.094,96.128,303.861,11.914,200.004,11.914z M214.922,202.625h163.518
			c-0.291,19.594-3.707,38.367-9.832,55.949L214.922,202.625z M366.816,263.523c-6.832,17.957-16.461,34.527-28.414,49.168
			L213.111,207.578L366.816,263.523z M214.922,197.379l153.686-55.944c6.125,17.551,9.541,36.356,9.832,55.944H214.922z
			 M213.111,192.408L338.402,87.31c11.953,14.65,21.582,31.206,28.414,49.149L213.111,192.408z M334.977,83.263l-125.234,105.12
			l81.783-141.646C307.906,56.546,322.568,68.917,334.977,83.263z M286.953,355.902c-16.363,9.141-34.316,15.801-53.385,19.387
			l-28.379-161.051L286.953,355.902z M205.189,185.771l28.379-161.089c19.068,3.646,37.021,10.261,53.385,19.441L205.189,185.771z
			 M200.004,21.498c9.672,0,19.137,0.791,28.385,2.259l-28.385,161.09L171.58,23.757C180.83,22.289,190.338,21.498,200.004,21.498z
			 M194.795,214.238l-28.381,161.051c-19.045-3.586-36.998-10.246-53.379-19.387L194.795,214.238z M194.795,185.771l-81.76-141.647
			c16.381-9.146,34.334-15.795,53.379-19.441L194.795,185.771z M108.473,46.737l81.779,141.646L64.98,83.263
			C77.404,68.917,92.072,56.546,108.473,46.737z M185.064,197.379H21.568c0.27-19.588,3.697-38.394,9.824-55.944L185.064,197.379z
			 M33.166,136.498c6.838-17.971,16.475-34.538,28.432-49.188l125.283,105.099L33.166,136.498z M185.064,202.625L31.393,258.574
			c-6.127-17.559-9.555-36.355-9.824-55.949H185.064z M186.881,207.578L61.598,312.703c-11.957-14.652-21.594-31.223-28.428-49.18
			L186.881,207.578z M64.98,316.703l125.271-105.105l-81.779,141.684C92.072,343.449,77.404,331.086,64.98,316.703z
			 M171.609,376.242l28.395-161.082l28.385,161.082c-9.248,1.473-18.713,2.266-28.385,2.266
			C190.338,378.508,180.83,377.715,171.609,376.242z M291.525,353.258l-81.783-141.66l125.244,105.105
			C322.568,331.086,307.906,343.449,291.525,353.258z"/>
		<polygon fill="#FFFFFF" points="200.004,114.614 286.059,200.675 255.533,200.675 255.533,283.848 144.473,283.848 
			144.473,200.675 113.916,200.675 148.266,166.34 148.266,131.2 175.258,131.2 175.258,139.383 		"/>
	</g>
</g>
</svg>
